<svg id="Capa_1" data-name="Capa 1" xmlns="http://www.w3.org/2000/svg" viewBox="0 0 50 50"><defs><style>.cls-1{fill:#37cccc;}.cls-2{fill:#fff;}</style></defs><title>Iconos_YobsIr</title><circle class="cls-1" cx="24.95" cy="24.79" r="18.5"/><path class="cls-2" d="M32.75,27.22h-17a2.5,2.5,0,0,1,0-5h17a2.5,2.5,0,0,1,0,5Z"/><path class="cls-2" d="M34.21,26.75a2,2,0,0,1-1.41-.59L23.92,17.3a2,2,0,0,1,2.83-2.83l8.87,8.87a2,2,0,0,1-1.41,3.41Z"/><path class="cls-2" d="M25.33,35.69a2,2,0,0,1-1.41-3.41l8.87-8.87a2,2,0,0,1,2.83,2.83l-8.87,8.87A2,2,0,0,1,25.33,35.69Z"/></svg>