<svg id="Capa_1" data-name="Capa 1" xmlns="http://www.w3.org/2000/svg" viewBox="0 0 50.33 50.33"><defs><style>.cls-1{fill:#37cccc;}.cls-2{fill:#fff;}</style></defs><title>Iconos_YobsAgregar</title><circle class="cls-1" cx="25.38" cy="25.44" r="18.5"/><path class="cls-2" d="M26.69,24.25h4.42a1.14,1.14,0,0,1,1.15,1.15v0a1.16,1.16,0,0,1-1.15,1.15H26.69v4.2a1.3,1.3,0,0,1-1.29,1.29h0a1.28,1.28,0,0,1-1.29-1.29v-4.2H19.64a1.16,1.16,0,0,1-1.15-1.15v0a1.13,1.13,0,0,1,1.15-1.15h4.43V20.12a1.28,1.28,0,0,1,1.29-1.29h0a1.3,1.3,0,0,1,1.29,1.29Z"/></svg>