<svg id="Capa_1" data-name="Capa 1" xmlns="http://www.w3.org/2000/svg" viewBox="0 0 50 50"><defs><style>.cls-1{fill:#666;}.cls-2{fill:#fff;}</style></defs><title>Iconos_YobsFiltros</title><path class="cls-1" d="M41,17.07H10a2,2,0,1,1,0-4H41a2,2,0,0,1,0,4Z"/><path class="cls-1" d="M41,37.4H10a2,2,0,0,1,0-4H41a2,2,0,0,1,0,4Z"/><path class="cls-1" d="M41,27.26H10a2,2,0,0,1,0-4H41a2,2,0,0,1,0,4Z"/><circle class="cls-2" cx="33.5" cy="25.26" r="2.47"/><path class="cls-1" d="M33.5,28.72A3.47,3.47,0,1,1,37,25.26,3.47,3.47,0,0,1,33.5,28.72Zm0-4.93A1.47,1.47,0,1,0,35,25.26,1.47,1.47,0,0,0,33.5,23.79Z"/><circle class="cls-2" cx="16.53" cy="15.07" r="2.47"/><path class="cls-1" d="M16.53,18.53A3.47,3.47,0,1,1,20,15.07,3.47,3.47,0,0,1,16.53,18.53Zm0-4.93A1.47,1.47,0,1,0,18,15.07,1.47,1.47,0,0,0,16.53,13.6Z"/><circle class="cls-2" cx="23.14" cy="35.4" r="2.47"/><path class="cls-1" d="M23.14,38.86A3.47,3.47,0,1,1,26.6,35.4,3.47,3.47,0,0,1,23.14,38.86Zm0-4.93A1.47,1.47,0,1,0,24.6,35.4,1.47,1.47,0,0,0,23.14,33.93Z"/></svg>