<svg id="Capa_1" data-name="Capa 1" xmlns="http://www.w3.org/2000/svg" viewBox="0 0 50 50"><defs><style>.cls-1{fill:#a3a3a3;}</style></defs><title>Iconos_YobsRecibido</title><path class="cls-1" d="M28.29,22.09a.5.5,0,0,0-.7.13l-2.75,4-1-1.17,1.54-2.22a.5.5,0,1,0-.82-.57l-1.44,2.07a.49.49,0,0,0-.47.08.5.5,0,0,0-.07.7l-.77,1.11-1.45-1.75a.5.5,0,0,0-.77.64l1.88,2.25,0,0,.05.06h0a.49.49,0,0,0,.25.08h0a.49.49,0,0,0,.2,0l.05,0,.06,0,.05-.07,0,0,1-1.42,1.22,1.46,0,0,.05.06h0a.49.49,0,0,0,.25.08h0a.49.49,0,0,0,.2,0l.05,0,.06,0,.05-.07,0,0,3.13-4.5A.5.5,0,0,0,28.29,22.09Z"/></svg>