<svg xmlns="http://www.w3.org/2000/svg" viewBox="0 0 782.44 228.57"><defs><style>.cls-1{fill:#18ffff;}</style></defs><title>Logos_YOBS_Isologo Fluor</title><g id="Capa_2" data-name="Capa 2"><g id="Capa_1-2" data-name="Capa 1"><path class="cls-1" d="M146.11,5.91h-.47q-19.44,0-26.28,17.57l-31.1,79.61q-.93-2.33-30.63-79.46Q50.79,5.91,31.2,5.91H28.4q-15.86,0-24.1,13.37Q-3.63,32,3.06,45.4L56.7,152.07v43.07A26.87,26.87,0,0,0,65.1,215a28.69,28.69,0,0,0,20.84,8.55h.62a28.88,28.88,0,0,0,21-8.55,27.39,27.39,0,0,0,8.09-19.9V150.36L171.14,46q7.31-13.37-.62-26.43Q162.43,5.91,146.11,5.91Z"/><path class="cls-1" d="M306.7.62A70.6,70.6,0,0,0,298.93,0a67.07,67.07,0,0,0-7.77.62Q242.79,5.13,212.94,35.3q-31.25,31.41-31.25,81.94,0,46.49,27.52,76.35,29.39,31.72,82.1,34.67,3.27.31,5,.31h5.13q1.71,0,5.13-.31,52.56-3,81.94-34.67Q416,163.73,416,117.24q0-50.53-31.25-81.94Q354.9,5.13,306.7.62ZM338,161.87q-16.33,19-39,19-22.86,0-39-19-17-19.59-16.95-47.58T259.9,66.71q16.17-19,39-19,22.7,0,39,19,16.79,19.59,16.79,47.58T338,161.87Z"/><path class="cls-1" d="M574.27,105.73c.1,0,.16-.1.16-.31s-.05-.31-.16-.31q31.1-14.61,31.1-42.92,0-29.23-28.77-43.07Q553.59,7,507.25,7q-8.71,0-22.86-.47-16.33-.31-21.15-.47a25.63,25.63,0,0,0-18.81,7.31A23,23,0,0,0,437,30.63V199a22.94,22.94,0,0,0,7.77,17.57,26,26,0,0,0,19.59,7q21.14-1.09,32-1.09,64.84,0,91.89-19.44,24.87-18.19,24.88-46.18Q613.14,120.35,574.27,105.73ZM495.59,54.89q0-3,2.49-3.11,5.91-.47,14-.47,30,0,30,18.66,0,9-8.24,14.31-9,5.75-26.43,5.75h-9.17a2.37,2.37,0,0,1-1.71-.78,3.36,3.36,0,0,1-.93-2.49Zm44.47,119.26q-10.58,5.75-28.46,5.75-9.33,0-13.06-.16a2.54,2.54,0,0,1-1.87-.78,3,3,0,0,1-1.09-2.33V135.74a3.37,3.37,0,0,1,.93-2.49,3.73,3.73,0,0,1,2.18-.78h10.57q19.43,0,30.63,5.75,11.5,5.91,11.51,17.42Q551.41,168.09,540.06,174.15Z"/><path class="cls-1" d="M768.14,118.33q-13.68-15.86-43.38-26.74Q703.45,83.5,696.3,78.68q-7.78-5.28-7.77-13.06,0-6.68,5.91-11,7-5.28,19.9-5.29,10.42,0,24.41,3.89a24,24,0,0,0,18.66-2.33,22.91,22.91,0,0,0,11-13.84l.16-.62a22.31,22.31,0,0,0-2.33-17.57,22.39,22.39,0,0,0-15.08-11Q728.64,2,715,2,677,2,653.54,20.84,629.9,39.49,629.91,69.66q0,44.63,61.42,66.55,18.66,6.53,26.12,12.59a16.33,16.33,0,0,1,6.38,13.06,15.45,15.45,0,0,1-7.31,13.68q-7.46,5.13-21.3,5.13-11.51,0-31.56-6.22a24.34,24.34,0,0,0-19.59,2,23,23,0,0,0-11.82,15.08l-.16.47a22.92,22.92,0,0,0,2.49,17.57,23.71,23.71,0,0,0,14.46,11q26.28,7.62,43.38,7.62,45.72,0,69.82-22.39,20.21-18.81,20.21-47.42Q782.44,134.81,768.14,118.33Z"/></g></g></svg>