<svg id="Capa_1" data-name="Capa 1" xmlns="http://www.w3.org/2000/svg" viewBox="0 0 600 600"><title>Categorías2</title><path d="M480.86,469c-13.65-33.33-27.48-66.59-41.27-99.86C434.4,356.56,429.25,344,424,331.48c-1.74-4.13-5.24-5.64-9-4.24s-5.37,4.87-4.07,9.11c.54,1.77,1.35,3.46,2.06,5.17q24.41,58.82,48.81,117.63c.46,1.11.77,2.28,1.33,4-2.21-.58-3.84-1-5.44-1.43-13.46-3.88-26.9-7.8-40.37-11.64-5.82-1.66-7.89-.75-10.83,4.57Q396.29,473,386.13,491.42c-.79,1.42-1.67,2.8-2.9,4.85L327,360.56c1.74-.5,2.92-.9,4.13-1.18a141.47,141.47,0,0,0,109.69-125.2c6.38-70.1-40.83-135-109.38-150.34-6.66-1.49-13.45-2.38-20.18-3.55H288.94a23.9,23.9,0,0,1-3.27.76,135.25,135.25,0,0,0-48.72,14.19,141.11,141.11,0,0,0-52.17,207.69,5.66,5.66,0,0,1,.72,6.22q-15.5,37-30.81,74-17.89,43.18-35.63,86.41a12.55,12.55,0,0,0-.74,7c.83,3.77,4.74,5.2,9.48,3.84,17.32-4.93,34.63-9.86,51.89-15,2.81-.83,4-.19,5.36,2.25,6,11.21,12.21,22.33,18.35,33.47,2.69,4.88,5.07,10,8.23,14.54,1.33,1.92,4.38,3.8,6.52,3.68s4.27-2.64,6.14-4.4c.86-.81,1.09-2.3,1.58-3.49q22.15-53.48,44.3-107c2.79-6.73,5.63-13.45,8.25-20.25,1.54-4-.17-7.8-3.78-9.25-3.46-1.39-7,.08-8.94,3.75-.47.88-.84,1.82-1.22,2.74q-16.55,40-33.1,80c-4.68,11.3-9.41,22.58-14.41,34.59-1.18-1.92-2-3.17-2.76-4.49q-10.08-18.2-20.13-36.42c-3.43-6.2-5.22-7-12.15-5-11.13,3.2-22.23,6.49-33.34,9.72-3.65,1.06-7.32,2.05-11.87,3.33l60.1-145c1.37,1.2,2.14,1.81,2.84,2.49q45.44,44.76,109.14,41.74c2.95-.14,4.19.72,5.31,3.43q30.31,73.54,60.82,147c1.37,3.3,2.87,6.4,6.93,6.73,4.29.35,6.29-2.64,8.08-5.91,8.3-15.18,16.72-30.29,24.91-45.52,1.57-2.93,3-3.65,6.34-2.66,17.11,5.14,34.29,10,51.46,14.94,4.26,1.22,8.19,0,9-3.36A14.35,14.35,0,0,0,480.86,469ZM300,348.84A127.28,127.28,0,0,1,172.92,221.48C173,151.32,230.17,94.14,300.19,94.25S427.33,151.5,427.28,221.68,370.17,348.92,300,348.84Z"/><path d="M407.1,228.9c-4.58-1.16-8.15,1.9-9,7.76-3.64,24.05-14.6,44.38-33.19,59.8-31.66,26.27-67.54,32.32-105.08,15.42-37.93-17.08-58-47.93-58.67-89.79C200.1,158.44,260,110.63,322,124.84c39.79,9.11,69.5,41.11,76.09,81.94.89,5.5,4,8.36,8.39,7.66s6.28-4.25,5.44-9.91c-8.16-55-55.82-96-111.59-96.45-6.12.54-12.29.71-18.34,1.69-60.06,9.73-102.13,65.43-94.11,125.79,5.72,43,29.29,74,69.27,90.51,40.38,16.64,79,10.6,113.52-16.27,23.43-18.24,37.11-42.7,41.43-72.21C412.77,233.14,410.82,229.84,407.1,228.9Z"/><path d="M378.22,203.67c2.32-2.35,4-4.86,2.83-8.39s-4-4.56-7.25-5.1c-13.82-2.29-27.62-4.7-41.45-6.9a6.93,6.93,0,0,1-5.79-4.17c-6.19-12.25-12.65-24.35-19-36.54-1.64-3.17-3.46-6.13-7.5-6.13s-5.86,3-7.5,6.13c-6.37,12.31-12.71,24.65-19.32,36.83a8.17,8.17,0,0,1-5,3.68c-13.91,2.56-27.89,4.81-41.85,7.1-3.28.54-6.08,1.61-7.26,5.1s.52,6,2.85,8.38c9.75,9.87,19.39,19.84,29.25,29.6a7.66,7.66,0,0,1,2.47,7.54c-2.35,14.39-4.43,28.83-6.58,43.09-.28,6.32,5.33,9.52,11.42,6.54,12.84-6.28,25.66-12.6,38.41-19.05a6.19,6.19,0,0,1,6.33,0c12.62,6.4,25.34,12.6,38,18.93,3,1.5,5.94,2.28,8.87.1s3.16-5.07,2.62-8.46c-2.2-14-4.34-28-6.2-42a8.14,8.14,0,0,1,1.95-5.9C358.28,223.77,368.28,213.75,378.22,203.67ZM336.08,226.4c-3.88,3.65-5,7.47-4.08,12.62,1.72,9.42,3,18.92,4.39,28.39.2,1.35.31,2.72.56,4.9-3.27-1.55-5.82-2.72-8.34-4-7.81-3.87-15.64-7.69-23.39-11.68a10.2,10.2,0,0,0-10.16,0c-9,4.66-18.13,9.08-27.22,13.58-1.24.61-2.54,1.12-4.77,2.09,1.65-11,2.74-20.9,4.76-30.66,1.46-7,.21-12.3-5.43-17.06-7.74-6.53-15-13.68-22.39-20.56l1.1-1.9c6.34-1.13,12.68-2.26,19-3.37,4.36-.76,8.71-1.82,13.11-2.15,5.83-.44,9.16-3.38,11.63-8.55,4.61-9.64,9.78-19,15.17-29.34,1.4,2.6,2.46,4.53,3.48,6.47,4.3,8.23,8.71,16.41,12.81,24.74a10.85,10.85,0,0,0,8.9,6.38c10.17,1.55,20.3,3.34,30.44,5.05,1.11.19,2.2.54,3.29.81l1.52,1.69c-1.62.89-3.55,1.47-4.81,2.71C349.08,213.13,342.83,220,336.08,226.4Z"/></svg>